TITLE ""
FILE "1Q_t_1558-1567.mp3" MP3
  TRACK 01 AUDIO
    TITLE "1Q_t_1558-1567_01"
    INDEX 01 00:00:00
  TRACK 02 AUDIO
    TITLE "1Q_t_1558-1567_02"
    INDEX 01 00:01:27
  TRACK 03 AUDIO
    TITLE "1Q_t_1558-1567_03"
    INDEX 01 00:01:70
  TRACK 04 AUDIO
    TITLE "1Q_t_1558-1567_04"
    INDEX 01 00:02:74
  TRACK 05 AUDIO
    TITLE "1Q_t_1558-1567_05"
    INDEX 01 00:03:09
  TRACK 06 AUDIO
    TITLE "1Q_t_1558-1567_06"
    INDEX 01 00:05:53
  TRACK 07 AUDIO
    TITLE "1Q_t_1558-1567_07"
    INDEX 01 00:05:58
  TRACK 08 AUDIO
    TITLE "1Q_t_1558-1567_08"
    INDEX 01 00:10:03
  TRACK 09 AUDIO
    TITLE "1Q_t_1558-1567_09"
    INDEX 01 00:10:48
  TRACK 10 AUDIO
    TITLE "1Q_t_1558-1567_10"
    INDEX 01 00:11:47
  TRACK 11 AUDIO
    TITLE "1Q_t_1558-1567_11"
    INDEX 01 00:11:55
  TRACK 12 AUDIO
    TITLE "1Q_t_1558-1567_12"
    INDEX 01 00:13:74
  TRACK 13 AUDIO
    TITLE "1Q_t_1558-1567_13"
    INDEX 01 00:14:07
  TRACK 14 AUDIO
    TITLE "1Q_t_1558-1567_14"
    INDEX 01 00:18:63
  TRACK 15 AUDIO
    TITLE "1Q_t_1558-1567_15"
    INDEX 01 00:19:33
  TRACK 16 AUDIO
    TITLE "1Q_t_1558-1567_16"
    INDEX 01 00:20:40
  TRACK 17 AUDIO
    TITLE "1Q_t_1558-1567_17"
    INDEX 01 00:20:50
  TRACK 18 AUDIO
    TITLE "1Q_t_1558-1567_18"
    INDEX 01 00:24:25
  TRACK 19 AUDIO
    TITLE "1Q_t_1558-1567_19"
    INDEX 01 00:24:28
  TRACK 20 AUDIO
    TITLE "1Q_t_1558-1567_20"
    INDEX 01 00:30:19
  TRACK 21 AUDIO
    TITLE "1Q_t_1558-1567_21"
    INDEX 01 00:30:64
  TRACK 22 AUDIO
    TITLE "1Q_t_1558-1567_22"
    INDEX 01 00:32:10
  TRACK 23 AUDIO
    TITLE "1Q_t_1558-1567_23"
    INDEX 01 00:32:20
  TRACK 24 AUDIO
    TITLE "1Q_t_1558-1567_24"
    INDEX 01 00:38:25
  TRACK 25 AUDIO
    TITLE "1Q_t_1558-1567_25"
    INDEX 01 00:38:32
  TRACK 26 AUDIO
    TITLE "1Q_t_1558-1567_26"
    INDEX 01 00:43:45
  TRACK 27 AUDIO
    TITLE "1Q_t_1558-1567_27"
    INDEX 01 00:44:17
  TRACK 28 AUDIO
    TITLE "1Q_t_1558-1567_28"
    INDEX 01 00:45:29
  TRACK 29 AUDIO
    TITLE "1Q_t_1558-1567_29"
    INDEX 01 00:45:36
  TRACK 30 AUDIO
    TITLE "1Q_t_1558-1567_30"
    INDEX 01 00:47:00
  TRACK 31 AUDIO
    TITLE "1Q_t_1558-1567_31"
    INDEX 01 00:47:06
  TRACK 32 AUDIO
    TITLE "1Q_t_1558-1567_32"
    INDEX 01 00:51:04
  TRACK 33 AUDIO
    TITLE "1Q_t_1558-1567_33"
    INDEX 01 00:51:51
  TRACK 34 AUDIO
    TITLE "1Q_t_1558-1567_34"
    INDEX 01 00:52:56
  TRACK 35 AUDIO
    TITLE "1Q_t_1558-1567_35"
    INDEX 01 00:52:62
  TRACK 36 AUDIO
    TITLE "1Q_t_1558-1567_36"
    INDEX 01 00:55:23
  TRACK 37 AUDIO
    TITLE "1Q_t_1558-1567_37"
    INDEX 01 00:55:29
  TRACK 38 AUDIO
    TITLE "1Q_t_1558-1567_38"
    INDEX 01 00:59:64
  TRACK 39 AUDIO
    TITLE "1Q_t_1558-1567_39"
    INDEX 01 01:00:40
  TRACK 40 AUDIO
    TITLE "1Q_t_1558-1567_40"
    INDEX 01 01:01:57
  TRACK 41 AUDIO
    TITLE "1Q_t_1558-1567_41"
    INDEX 01 01:01:63
  TRACK 42 AUDIO
    TITLE "1Q_t_1558-1567_42"
    INDEX 01 01:04:61
  TRACK 43 AUDIO
    TITLE "1Q_t_1558-1567_43"
    INDEX 01 01:04:67
  TRACK 44 AUDIO
    TITLE "1Q_t_1558-1567_44"
    INDEX 01 01:10:62
  TRACK 45 AUDIO
    TITLE "1Q_t_1558-1567_45"
    INDEX 01 01:11:30
  TRACK 46 AUDIO
    TITLE "1Q_t_1558-1567_46"
    INDEX 01 01:12:43
  TRACK 47 AUDIO
    TITLE "1Q_t_1558-1567_47"
    INDEX 01 01:12:49
  TRACK 48 AUDIO
    TITLE "1Q_t_1558-1567_48"
    INDEX 01 01:14:54
  TRACK 49 AUDIO
    TITLE "1Q_t_1558-1567_49"
    INDEX 01 01:14:60
  TRACK 50 AUDIO
    TITLE "1Q_t_1558-1567_50"
    INDEX 01 01:19:49
  TRACK 51 AUDIO
    TITLE "1Q_t_1558-1567_51"
    INDEX 01 01:20:17
  TRACK 52 AUDIO
    TITLE "1Q_t_1558-1567_52"
    INDEX 01 01:21:17
  TRACK 53 AUDIO
    TITLE "1Q_t_1558-1567_53"
    INDEX 01 01:21:24
  TRACK 54 AUDIO
    TITLE "1Q_t_1558-1567_54"
    INDEX 01 01:25:12
  TRACK 55 AUDIO
    TITLE "1Q_t_1558-1567_55"
    INDEX 01 01:25:18
  TRACK 56 AUDIO
    TITLE "1Q_t_1558-1567_56"
    INDEX 01 01:30:10
  TRACK 57 AUDIO
    TITLE "1Q_t_1558-1567_57"
    INDEX 01 01:30:66
  TRACK 58 AUDIO
    TITLE "1Q_t_1558-1567_58"
    INDEX 01 01:32:12
  TRACK 59 AUDIO
    TITLE "1Q_t_1558-1567_59"
    INDEX 01 01:32:18
  TRACK 60 AUDIO
    TITLE "1Q_t_1558-1567_60"
    INDEX 01 01:33:37
  TRACK 61 AUDIO
    TITLE "1Q_t_1558-1567_61"
    INDEX 01 01:33:43
  TRACK 62 AUDIO
    TITLE "1Q_t_1558-1567_62"
    INDEX 01 01:37:67
